# xmcd
#
# Track frame offsets:
# 150
# 17701
# 34368
# 50585
# 66511
# 82421
# 100231
# 118654
# 134730
# 151007
# 167769
# 182725
# 197025
# 213608
# 227339
#
# Disc length: 3289 seconds
#
#
# Revision: 0
# Processed by: cddbd v1.5.1PL0 Copyright (c) Steve Scherf et al.
# Submitted via: FreeRIP 2.942 
#
DISCID=db0cd70f
DTITLE=Marco Aurélio e Mathias - Acústico
DYEAR=2005
DGENRE=Country
TTITLE0=A decisão é sua
TTITLE1=Destino
TTITLE2=É assim
TTITLE3=Você sabe disso
TTITLE4=Novos caminhos
TTITLE5=Abandono
TTITLE6=Ponto de chegada
TTITLE7=Combinação perfeita
TTITLE8=100% mais você
TTITLE9=Por telepatia
TTITLE10=Telefone no ar
TTITLE11=Coração partido
TTITLE12=Amanhã
TTITLE13=Total liberdade
TTITLE14=Obrigado senhor
EXTD=
EXTT0=
EXTT1=
EXTT2=
EXTT3=
EXTT4=
EXTT5=
EXTT6=
EXTT7=
EXTT8=
EXTT9=
EXTT10=
EXTT11=
EXTT12=
EXTT13=
EXTT14=
PLAYORDER=
